<?xml version="1.0"?>
<svg width="35" height="35" xmlns="http://www.w3.org/2000/svg" xmlns:svg="http://www.w3.org/2000/svg" version="1.1" xml:space="preserve">
 <g class="layer">
  <title>Layer 1</title>
  <g id="svg_1" transform="rotate(-178.618, 18, 18.3783)">
   <g id="svg_2">
    <g id="svg_3">
     <path d="m11.62,16.25l-7.08,0c-1.95,0 -3.54,1.59 -3.54,3.54l0,11.33c0,1.95 1.59,3.54 3.54,3.54l4.25,0c1.95,0 3.54,-1.59 3.54,-3.54l0,-14.17c0,-0.39 -0.32,-0.71 -0.71,-0.71z" id="svg_4"/>
     <path d="m35,21.57c0,-0.85 -0.34,-1.64 -0.92,-2.23c0.66,-0.72 1,-1.7 0.91,-2.7c-0.17,-1.8 -1.79,-3.21 -3.69,-3.21l-8.75,0c0.43,-1.32 1.13,-3.73 1.13,-5.67c0,-3.07 -2.61,-5.67 -4.25,-5.67c-1.47,0 -2.52,0.83 -2.57,0.86c-0.17,0.13 -0.26,0.34 -0.26,0.55l0,4.8l-3.18,6.9c-0.1,0.21 -0.09,0.46 0.04,0.66c0.21,0.34 0.31,0.71 0.31,1.09l0,14.17c0,0.34 -0.04,0.69 -0.12,1.06c-0.08,0.38 0.16,0.76 0.54,0.84c0.62,0.14 1.23,0.22 1.71,0.22l13,0c1.54,0 2.89,-1.04 3.21,-2.47c0.16,-0.74 0.07,-1.48 -0.26,-2.13c1.05,-0.53 1.75,-1.61 1.75,-2.83c0,-0.5 -0.11,-0.98 -0.33,-1.42c1.05,-0.53 1.75,-1.6 1.75,-2.83z" id="svg_5"/>
    </g>
   </g>
  </g>
 </g>

</svg>